<svg width="58" height="63" viewBox="0 0 58 63" fill="none" xmlns="http://www.w3.org/2000/svg">
<path d="M22.3765 45.8591L30.4098 39.1L35.5247 42.5667C36.4061 43.1641 37.0169 44.0861 37.1698 45.1398C37.5507 47.7644 37.9369 51.6047 38.3104 55.644C38.5268 57.9838 36.6811 60 34.3313 60H28.5393C27.032 60 25.6526 59.1526 24.9713 57.808L21.3837 50.7278C20.5443 49.0712 20.9555 47.0547 22.3765 45.8591Z" fill="black"/>
<path d="M3 5L21.5765 30.1814C22.7237 31.7365 22.5951 33.8895 21.2709 35.297L17.7506 39.0386C16.4986 40.3693 14.5041 40.6825 12.9045 39.7997L3 34.3333M30.4098 39.1L22.3765 45.8591C20.9555 47.0547 20.5443 49.0712 21.3837 50.7278L24.9713 57.808C25.6526 59.1526 27.032 60 28.5393 60H34.3313C36.6811 60 38.5268 57.9838 38.3104 55.644C37.9369 51.6047 37.5507 47.7644 37.1698 45.1398C37.0169 44.0861 36.4061 43.1641 35.5247 42.5667L30.4098 39.1ZM30.4098 39.1L47 45.3333" stroke="black" stroke-width="6" stroke-linecap="round"/>
<mask id="path-3-inside-1_7_7" fill="white">
<rect width="58" height="59" rx="4"/>
</mask>
<rect width="58" height="59" rx="4" stroke="black" stroke-width="12" mask="url(#path-3-inside-1_7_7)"/>
<mask id="path-4-inside-2_7_7" fill="white">
<rect x="23" y="1" width="13" height="14" rx="4"/>
</mask>
<rect x="23" y="1" width="13" height="14" rx="4" fill="black" stroke="black" stroke-width="12" mask="url(#path-4-inside-2_7_7)"/>
</svg>
