<svg width="134" height="152" viewBox="0 0 134 152" fill="none" xmlns="http://www.w3.org/2000/svg">
<path d="M80.8968 74.9464L68.2483 80.4921L81.5155 84.3288C93.6489 87.8376 105.732 94.9716 114.726 103.458C123.881 112.097 129 121.313 129 128.805C129 132.791 127.307 135.742 124.008 138.212C120.499 140.839 115.247 142.821 108.669 144.208C95.532 146.979 79.1489 147 66.256 147C53.7185 147 37.7075 146.981 24.8541 144.35C18.4132 143.032 13.277 141.152 9.85416 138.668C6.64021 136.336 5.067 133.612 5.067 129.991C5.067 127.369 6.14817 123.724 8.61779 119.338C11.0429 115.031 14.6002 110.377 19.0142 105.836C27.8771 96.7181 39.7488 88.5071 51.7738 84.5281L64.4416 80.3363L52.1386 75.171C38.9813 69.647 29.756 56.645 29.756 41.5C29.756 21.3416 46.0976 5 66.256 5C86.4144 5 102.756 21.3416 102.756 41.5C102.756 56.443 93.7756 69.2997 80.8968 74.9464Z" stroke="black" stroke-width="10"/>
</svg>
