<svg width="65" height="52" viewBox="0 0 65 52" fill="none" xmlns="http://www.w3.org/2000/svg">
<path d="M49.9999 48.9999V51.9999C51.6568 51.9999 52.9999 50.6567 52.9999 48.9999L49.9999 48.9999ZM14.9999 48.9999L11.9999 48.9999C11.9999 49.7955 12.316 50.5586 12.8786 51.1212C13.4412 51.6838 14.2043 51.9999 14.9999 51.9999L14.9999 48.9999ZM15 18.8816L13.0195 16.6283L15 18.8816ZM32.5 3.5L34.4806 1.24669C33.3479 0.251104 31.6521 0.251104 30.5194 1.24669L32.5 3.5ZM59.5313 31.2533C60.7758 32.3471 62.6713 32.225 63.7652 30.9806C64.859 29.7361 64.7369 27.8405 63.4924 26.7467L59.5313 31.2533ZM1.5076 26.7467C0.263128 27.8405 0.141009 29.7361 1.23484 30.9806C2.32867 32.225 4.22423 32.3471 5.4687 31.2533L1.5076 26.7467ZM26.9999 34.9999V31.9999C25.3431 31.9999 23.9999 33.343 23.9999 34.9999H26.9999ZM37.9999 34.9999H40.9999C40.9999 33.343 39.6568 31.9999 37.9999 31.9999V34.9999ZM47 18.8816L46.9999 48.9999L52.9999 48.9999L53 18.8816L47 18.8816ZM17.9999 48.9999L18 18.8816L12 18.8816L11.9999 48.9999L17.9999 48.9999ZM30.5194 5.75331L48.0194 21.135L51.9805 16.6283L34.4806 1.24669L30.5194 5.75331ZM48.0194 21.135L59.5313 31.2533L63.4924 26.7467L51.9805 16.6283L48.0194 21.135ZM5.4687 31.2533L16.9806 21.135L13.0195 16.6283L1.5076 26.7467L5.4687 31.2533ZM16.9806 21.135L34.4806 5.75331L30.5194 1.24669L13.0195 16.6283L16.9806 21.135ZM26.9999 37.9999H37.9999V31.9999H26.9999V37.9999ZM34.9999 34.9999V48.9999H40.9999V34.9999H34.9999ZM29.9999 48.9999V34.9999H23.9999V48.9999H29.9999ZM49.9999 45.9999H32.4999V51.9999H49.9999V45.9999ZM32.4999 45.9999H14.9999V51.9999H32.4999V45.9999Z" fill="black"/>
</svg>
