<svg width="50" height="48" viewBox="0 0 50 48" fill="none" xmlns="http://www.w3.org/2000/svg">
<path d="M2.95166 2.75L8.88525 4.86914C9.54685 5.10542 10.036 5.67151 10.1737 6.36039L14.6301 28.6422C14.8171 29.5771 15.6379 30.25 16.5913 30.25H17.4517M18.9517 9.25L45.3887 10.6174C46.6896 10.6847 47.58 11.9579 47.1969 13.2029L42.3861 28.8382C42.1279 29.6774 41.3525 30.25 40.4745 30.25H17.4517M17.4517 30.25L15.9062 34.5773C15.441 35.8798 16.4066 37.25 17.7897 37.25H41.9517M36.9517 38.75C32.4517 38.75 32.4517 45.25 36.9517 45.25C41.4517 45.25 41.4517 38.75 36.9517 38.75ZM19.9517 38.75C15.4517 38.75 15.4517 45.25 19.9517 45.25C24.4517 45.25 24.4517 38.75 19.9517 38.75Z" stroke="black" stroke-width="4" stroke-linecap="round"/>
</svg>
